<svg xmlns="http://www.w3.org/2000/svg" width="1200" height="630" viewBox="0 0 1200 630" role="img" aria-labelledby="title desc">
  <title id="title">The Candidate Studio</title>
  <desc id="desc">Clarity from profile to application.</desc>
  <rect width="1200" height="630" fill="#071D2B"/>
  <circle cx="1080" cy="52" r="190" fill="none" stroke="#61D8C4" stroke-opacity=".12" stroke-width="2"/>
  <circle cx="1080" cy="52" r="135" fill="none" stroke="#2F57FF" stroke-opacity=".18" stroke-width="28"/>
  <path d="M760 175 V455" stroke="#61D8C4" stroke-opacity=".45" stroke-width="2"/>
  <g font-family="Arial, sans-serif">
    <text x="72" y="96" fill="#61D8C4" font-size="20" font-weight="700" letter-spacing="4">INDEPENDENT ADMISSIONS ADVISORY</text>
    <text x="72" y="210" fill="#FFFFFF" font-size="62" font-weight="800" letter-spacing="-2">THE CANDIDATE</text>
    <text x="72" y="280" fill="#FFFFFF" font-size="74" font-weight="800" letter-spacing="-2">STUDIO</text>
    <text x="72" y="354" fill="#BFD1D3" font-size="29">Clarity from profile to application.</text>
    <rect x="72" y="420" width="440" height="66" rx="10" fill="#2F57FF"/>
    <text x="102" y="462" fill="#FFFFFF" font-size="22" font-weight="700">Independent guidance · Clear pricing</text>
    <g font-size="18" font-weight="700">
      <circle cx="760" cy="175" r="29" fill="#071D2B" stroke="#61D8C4" stroke-width="2"/>
      <text x="747" y="181" fill="#61D8C4">01</text>
      <text x="820" y="166" fill="#FFFFFF" font-size="25">PROFILE</text>
      <text x="820" y="196" fill="#BFD1D3" font-weight="400">Starting point</text>
      <circle cx="760" cy="315" r="29" fill="#071D2B" stroke="#61D8C4" stroke-width="2"/>
      <text x="747" y="321" fill="#61D8C4">02</text>
      <text x="820" y="306" fill="#FFFFFF" font-size="25">DIRECTION</text>
      <text x="820" y="336" fill="#BFD1D3" font-weight="400">Right programs</text>
      <circle cx="760" cy="455" r="29" fill="#071D2B" stroke="#61D8C4" stroke-width="2"/>
      <text x="747" y="461" fill="#61D8C4">03</text>
      <text x="820" y="446" fill="#FFFFFF" font-size="25">APPLICATION</text>
      <text x="820" y="476" fill="#BFD1D3" font-weight="400">A clear story</text>
    </g>
    <text x="72" y="572" fill="#FFFFFF" fill-opacity=".55" font-size="17">Balkans · Diaspora · Europe</text>
    <circle cx="1096" cy="558" r="9" fill="#E65B43"/>
  </g>
</svg>
